<?xml version="1.0" encoding="UTF-8" standalone="no"?>
<svg
   xmlns:dc="http://purl.org/dc/elements/1.1/"
   xmlns:cc="http://creativecommons.org/ns#"
   xmlns:rdf="http://www.w3.org/1999/02/22-rdf-syntax-ns#"
   xmlns:svg="http://www.w3.org/2000/svg"
   xmlns="http://www.w3.org/2000/svg"
   xmlns:sodipodi="http://sodipodi.sourceforge.net/DTD/sodipodi-0.dtd"
   xmlns:inkscape="http://www.inkscape.org/namespaces/inkscape"
   width="328.312"
   height="352.509"
   viewBox="0 0 86.866 93.268"
   version="1.1"
   id="svg374"
   sodipodi:docname="Seal of West Aceh Regency.svg"
   inkscape:version="1.0.1 (3bc2e813f5, 2020-09-07)">
  <metadata
     id="metadata378">
    <rdf:RDF>
      <cc:Work
         rdf:about="">
        <dc:format>image/svg+xml</dc:format>
        <dc:type
           rdf:resource="http://purl.org/dc/dcmitype/StillImage" />
      </cc:Work>
    </rdf:RDF>
  </metadata>
  <sodipodi:namedview
     pagecolor="#ffffff"
     bordercolor="#666666"
     borderopacity="1"
     objecttolerance="10"
     gridtolerance="10"
     guidetolerance="10"
     inkscape:pageopacity="0"
     inkscape:pageshadow="2"
     inkscape:window-width="1366"
     inkscape:window-height="705"
     id="namedview376"
     showgrid="false"
     inkscape:zoom="0.63818932"
     inkscape:cx="75.422253"
     inkscape:cy="157.55547"
     inkscape:window-x="-8"
     inkscape:window-y="-8"
     inkscape:window-maximized="1"
     inkscape:current-layer="svg374" />
  <style
     id="style2"><![CDATA[.B{stroke-width:.265}.C{fill:#ffeba3}.D{fill:#f5c742}.E{opacity:.998}.F{stroke:#a07843}.G{fill:#fff}.H{stroke-width:.565}.I{fill:#64cb00}.J{stroke:#54ab00}.K{fill:#75ee00}.L{stroke-width:.251}.M{stroke:#000}.N{fill:none}.O{fill:#e8e8e8}.P{stroke:#ddd}.Q{fill:#018f50}.R{stroke:#005b31}.S{stroke-width:.655}.T{stroke-width:.249}]]></style>
  <path
     d="M 43.433,0.937 C 29.131,14.387 1.332,16.361 2.005,43.194 1.724,53.216 12.749,68.106 0.683,73.054 v 19.532 h 42.75 42.751 V 73.054 C 74.117,68.106 85.143,53.216 84.861,43.194 83.547376,16.567351 57.115298,13.039804 43.433,0.937 Z"
     stroke-width="1.365"
     class="G M"
     id="path4"
     sodipodi:nodetypes="ccccccccc" />
  <path
     d="M14.467 87.254h-1.793l-.713-2.001H8.698l-.674 2.001H6.275l3.18-8.81h1.743zm-3.035-3.485L10.307 80.5l-1.103 3.269zm9.133.246l1.598.547q-.368 1.442-1.225 2.145-.852.697-2.166.697-1.626 0-2.673-1.196-1.047-1.202-1.047-3.281 0-2.199 1.053-3.413 1.053-1.22 2.768-1.22 1.498 0 2.434.956.557.565.835 1.623l-1.632.421q-.145-.685-.607-1.082-.457-.397-1.114-.397-.908 0-1.476.703-.562.703-.562 2.278 0 1.671.557 2.38.557.709 1.448.709.657 0 1.13-.451.473-.451.679-1.418zm3.013 3.239v-8.81h6.053v1.49h-4.405v1.953h4.099v1.484h-4.099v2.398h4.561v1.484zm7.612 0v-8.81h1.648v3.467h3.23v-3.467h1.648v8.81h-1.648v-3.852h-3.23v3.852zm11.405-8.809h3.263q.969 0 1.442.09.479.084.852.361.379.276.629.739.251.457.251 1.028 0 .619-.312 1.136-.306.517-.835.775.746.234 1.147.799.401.565.401 1.328 0 .601-.262 1.172-.256.565-.707.907-.446.337-1.103.415-.412.048-1.988.06h-2.779zm1.648 1.466v2.037h1.08q.963 0 1.197-.03.423-.054.663-.312.245-.264.245-.691 0-.409-.212-.661-.206-.258-.618-.312-.245-.03-1.409-.03zm0 3.503v2.356h1.526q.891 0 1.13-.054.368-.072.596-.349.234-.282.234-.751 0-.397-.178-.673-.178-.276-.518-.403-.334-.126-1.459-.126zm13.945 3.84h-1.793l-.713-2.001h-3.263l-.674 2.001h-1.749l3.18-8.81h1.743zm-3.035-3.485L54.028 80.5l-1.103 3.269zm3.915 3.485v-8.81h3.469q1.309 0 1.899.24.596.234.952.841.356.607.356 1.388 0 .992-.54 1.641-.54.643-1.615.811.535.337.88.739.351.403.941 1.43l.997 1.719h-1.971l-1.192-1.917q-.635-1.028-.869-1.292-.234-.27-.496-.367-.262-.102-.83-.102h-.334v3.678zm1.648-5.084h1.22q1.186 0 1.481-.108.295-.108.462-.373.167-.264.167-.661 0-.445-.223-.715-.217-.276-.618-.349-.2-.03-1.203-.03h-1.286zm13.944 5.084h-1.793l-.713-2.001h-3.263l-.674 2.001h-1.749l3.18-8.81h1.743zm-3.035-3.485L70.5 80.5l-1.103 3.269zm4.901 3.485v-7.319h-2.422v-1.49h6.488v1.49h-2.417v7.319z"
     id="path6" />
  <g
     id="g1526">
    <path
       id="use8"
       d="m 15.362,70.292 c -0.826,-0.52 2.116,-3.209 3.057,-2.639 l 3.608,2.773 c 1.713,1.003 2.274,-0.232 2.238,-0.969 l 0.2,-1.37 c 0.44,-0.359 2.134,-0.363 2.773,0.1 0.74,1.392 0.513,2.966 0.267,4.544 -0.052,0.321 -1.744,3.275 -5.245,1.37 z" />
    <path
       id="use10"
       d="m 18.318,68.371 c -0.454,-0.232 -1.29,0.11 -1.375,0.556 0.483,0.289 1.115,0.263 1.643,0.49 0.987,0.35 1.862,0.935 2.695,1.56 0.279,0.426 0.758,-0.06 0.255,-0.271 l -2.407,-1.96 c -0.257,-0.153 -0.541,-0.25 -0.811,-0.375 z"
       style="fill:#212121" />
    <path
       id="use12"
       d="m 26.336,71.696 c -0.453,0.606 -0.92,1.428 -1.784,1.418 -0.562,0.087 -1.102,-0.086 -1.648,-0.133 -0.77,0.172 0.067,1.059 0.57,0.943 0.679,0.02 1.477,0.276 2.044,-0.238 0.423,-0.316 1.061,-0.558 1.074,-1.175 0.029,-0.285 -0.005,-0.632 -0.255,-0.815 z"
       style="fill:#212121;stroke:#000000;stroke-width:0.265" />
    <path
       id="use14"
       d="m 25.768,68.438 c -0.476,0.113 -1.143,0.309 -1.101,0.922 -0.204,0.279 -0.007,1.326 0.297,0.727 0.132,-0.611 0.635,-1.007 1.261,-0.949 0.866,-0.246 -0.023,-0.699 -0.458,-0.699 z"
       style="fill:#212121;stroke:#000000;stroke-width:0.265" />
    <path
       d="m 24.718,67.958 1.615,-0.082 c 0.1,-0.251 0.202,-0.496 -0.013,-1.008 l -1.679,0.042 c -0.286,0.53 -0.105,0.789 0.077,1.048 z"
       class="O"
       id="path20"
       style="stroke:#858585;stroke-width:0.265" />
    <path
       id="use22"
       d="m 24.641,66.91 c -1.427,-7.932 0.408,-14.208 4.769,-19.202 1.13,3.447 0.703,8.283 -3.14,16.17 -0.432,1.232 1.231,2.012 2.288,2.923 z"
       style="fill:#ffffff;stroke:#858585;stroke-width:0.265" />
    <path
       id="use26"
       d="m 25.326,67.164 c 0.264,0.131 0.463,0.24 0.617,0.444 0.116,-0.188 0.061,-0.362 -0.009,-0.488 -0.246,-0.009 -0.413,0.024 -0.579,0.053 -0.01,-0.002 -0.019,-0.005 -0.028,-0.01 z"
       style="fill:#ffffff" />
    <path
       d="M26.087 63.548c-.593-5.51.193-8.726 3.496-13.607.001 5.482-1.158 8.51-3.496 13.607z"
       class="O"
       id="path28" />
    <path
       id="use30"
       d="m 71.504069,70.292 c 0.826,-0.52 -2.116,-3.209 -3.057,-2.639 l -3.608,2.773 c -1.713,1.003 -2.274,-0.232 -2.238,-0.969 l -0.2,-1.37 c -0.44,-0.359 -2.134,-0.363 -2.773,0.1 -0.74,1.392 -0.513,2.966 -0.267,4.544 0.052,0.321 1.744,3.275 5.245,1.37 z" />
    <path
       id="use32"
       d="m 68.548069,68.371 c 0.454,-0.232 1.29,0.11 1.375,0.556 -0.483,0.289 -1.115,0.263 -1.643,0.49 -0.987,0.35 -1.862,0.935 -2.695,1.56 -0.279,0.426 -0.758,-0.06 -0.255,-0.271 l 2.407,-1.96 c 0.257,-0.153 0.541,-0.25 0.811,-0.375 z"
       style="fill:#212121" />
    <path
       id="use34"
       d="m 60.530069,71.696 c 0.453,0.606 0.92,1.428 1.784,1.418 0.562,0.087 1.102,-0.086 1.648,-0.133 0.77,0.172 -0.067,1.059 -0.57,0.943 -0.679,0.02 -1.477,0.276 -2.044,-0.238 -0.423,-0.316 -1.061,-0.558 -1.074,-1.175 -0.029,-0.285 0.005,-0.632 0.255,-0.815 z"
       style="fill:#212121;stroke:#000000;stroke-width:0.265" />
    <path
       id="use36"
       d="m 61.098069,68.438 c 0.476,0.113 1.143,0.309 1.101,0.922 0.204,0.279 0.007,1.326 -0.297,0.727 -0.132,-0.611 -0.635,-1.007 -1.261,-0.949 -0.866,-0.246 0.023,-0.699 0.458,-0.699 z"
       style="fill:#212121;stroke:#000000;stroke-width:0.265" />
    <path
       d="m 62.148067,67.958 -1.615,-0.082 c -0.1,-0.251 -0.202,-0.496 0.013,-1.008 l 1.679,0.042 c 0.286,0.53 0.105,0.789 -0.077,1.048 z"
       class="O"
       id="path42"
       style="stroke:#858585;stroke-width:0.265" />
    <path
       id="use44"
       d="m 62.225069,66.91 c 1.427,-7.932 -0.408,-14.208 -4.769,-19.202 -1.13,3.447 -0.703,8.283 3.14,16.17 0.432,1.232 -1.231,2.012 -2.288,2.923 z"
       style="fill:#ffffff;stroke:#858585;stroke-width:0.265" />
    <path
       id="use48"
       d="m 61.540069,67.164 c -0.264,0.131 -0.463,0.24 -0.617,0.444 -0.116,-0.188 -0.061,-0.362 0.009,-0.488 0.246,-0.009 0.413,0.024 0.579,0.053 0.01,-0.002 0.019,-0.005 0.028,-0.01 z"
       style="fill:#ffffff" />
    <path
       d="m 60.779067,63.548 c 0.593,-5.51 -0.193,-8.726 -3.496,-13.607 -0.001,5.482 1.158,8.51 3.496,13.607 z"
       class="O"
       id="path50" />
  </g>
  <path
     d="M43.433 49.612l-.249 11.749c-.306.098-.511.364-.511.662 0 .289.192.548.483.653l-.024 1.118h.301.301l-.024-1.118c.291-.105.483-.364.483-.653 0-.299-.205-.565-.511-.662l-.249-11.749z"
     id="path54" />
  <g
     id="g1416">
    <path
       d="M38.218 12.708l3.119 2.3-.001.005"
       class="C"
       id="path56" />
    <path
       d="M44.767 12.702L43.432 8.89l-.006.018-1.322 3.789-.002.006-3.903-.008.02.014 3.118 2.305-1.139 3.832.024-.016 3.205-2.305.006-.005 3.238 2.186-.002-.007-1.191-3.726h.001l3.185-2.274.006-.004-3.891.008z"
       class="G"
       id="path58" />
    <path
       fill="#a07843"
       d="M40.197 19.076c-.047 0-.094-.014-.134-.043-.081-.057-.116-.16-.088-.255l1.092-3.677-3.007-2.223c-.08-.059-.114-.164-.082-.259s.12-.159.22-.159h0l3.739.008 1.276-3.657c.032-.093.12-.155.218-.155h0c.098 0 .186.062.218.155l1.281 3.657 3.736-.008h0a.23.23 0 0 1 .22.16c.031.096-.004.2-.085.259l-3.055 2.181 1.132 3.542a.23.23 0 0 1 .023.1c0 .128-.104.231-.231.231-.021 0-.042-.003-.061-.008a.22.22 0 0 1-.071-.031L43.436 16.8l-3.104 2.232c-.039.029-.087.043-.134.043zm-1.294-6.15l2.571 1.901c.078.058.112.159.084.252l-.946 3.183 2.679-1.927c.079-.057.19-.063.271-.008l2.685 1.812-.99-3.097c-.03-.095.003-.199.084-.257l2.604-1.859-3.167.007h0c-.098 0-.194-.062-.227-.155L43.433 9.59l-1.11 3.182a.24.24 0 0 1-.22.161h0l-3.199-.007z"
       id="path60" />
    <path
       d="M43.426 8.907v5.424l1.351-1.63h-.009L43.432 8.89z"
       class="D"
       id="path62" />
    <g
       class="C"
       id="g68">
      <path
         d="M41.337 15.008l-.001.005 2.09-.677v-.004l-5.208-1.624z"
         id="path64" />
      <path
         d="M43.426 14.332V8.907l-1.322 3.789 1.318 1.635z"
         id="path66" />
    </g>
    <path
       d="M38.199 12.693l.02.014 5.204 1.623-1.318-1.635-.002.006z"
       class="D"
       id="path70" />
    <path
       d="M48.668 12.693l-3.891.008-1.347 1.626 5.233-1.63z"
       class="C"
       id="path72" />
    <path
       d="M43.426 14.332l2.052.64 3.185-2.274-5.233 1.63-.003.004z"
       class="D"
       id="path74" />
    <path
       d="M43.426 14.332v.004l3.242 4.362-1.191-3.726h.001z"
       class="C"
       id="path76" />
    <path
       d="M43.432 16.519l3.238 2.186-.002-.007-3.242-4.362v2.187zm-2.096-1.506l-1.139 3.832.024-.016 3.194-4.489z"
       class="D"
       id="path78" />
    <path
       d="M40.221 18.828l3.205-2.305v-2.187l-.01.003z"
       class="C"
       id="path80" />
  </g>
  <g
     id="g1556">
    <g
       class="M"
       id="g96">
      <g
         class="S"
         id="g86">
        <path
           d="M39.111 25.783c-2.47 0-4.79 1.43-5.276 3.806l-.852 12.074h10.45 10.45l-.852-12.074c-.486-2.376-2.805-3.806-5.276-3.806h-4.322z"
           fill="red"
           id="path82" />
        <path
           d="M40.905 25.783c-1.445 0-3.133.768-3.134 3.114l-.451 12.766h6.113 6.113l-.451-12.766c-.001-2.346-1.688-3.114-3.134-3.114h-2.528z"
           fill="gold"
           id="path84" />
      </g>
      <path
         d="M41.578 25.808h3.71v15.83h-3.71z"
         fill="red"
         stroke-width=".705"
         
         class="E"
         id="path88" />
      <g
         class="N S"
         id="g94">
        <path
           d="M33.568 33.372l4.084-1.095 4.184-.649h3.193"
           id="path90" />
        <path
           d="M53.297 33.372l-4.084-1.095-4.184-.649h-3.193"
           id="path92" />
      </g>
    </g>
    <g
       transform="matrix(.999806 0 0 1.037722 63.955014 -101.877036)"
       id="g104">
      <path
         id="ellipse98"
         style="opacity:0.998;fill:#ffffff;stroke:#000000;stroke-width:0.249;paint-order:markers fill stroke"
         d="m -8.5969992,142.547 a 11.929,3.2750001 0 0 1 -11.9289998,3.275 11.929,3.2750001 0 0 1 -11.929,-3.275 11.929,3.2750001 0 0 1 11.929,-3.275 11.929,3.2750001 0 0 1 11.9289998,3.275 z"
         class="E G M T" />
      <path
         d="M-20.526 140.06c-4.777 0-8.65 1.011-8.65 2.258 0 .622.983 1.217 2.717 1.643-.813-.355-1.249-.774-1.249-1.203 0-1.18 3.216-2.136 7.182-2.136s7.182.956 7.182 2.136c0 .43-.435.849-1.249 1.204 1.735-.427 2.718-1.021 2.717-1.644 0-1.247-3.873-2.258-8.65-2.258z"
         
         class="E"
         id="path100" />
      <path
         d="M-20.526 135.799c-5.041 0-9.283.942-10.446 2.235-.883.981-1.483 1.589-1.483 4.513 0-1.809 5.341-3.275 11.929-3.275s11.929 1.466 11.929 3.275c0-2.925-.6-3.532-1.483-4.513-1.164-1.293-5.405-2.235-10.446-2.235z"
         
         class="E M T"
         id="path102" />
    </g>
    <path
       d="M43.433 21.498l-4.155 3.957h4.155 4.155zm-1.597 5.105v5.034l-3.26.496.088-1.633c0-2.371 1.601-3.898 3.171-3.898zm0 6.636v8.425h-3.628l.233-4.385c0-2.371 1.826-4.04 3.396-4.04zm-6.29-4.962c-.02.271.016.542.01.812.011.12.031.279-.092.349-.166.141-.306.31-.451.472-.099.136-.095.31-.109.468-.033.198.018.41-.066.599-.013.156-.04.311-.036.467.029.213.256.114.395.116.18.023.347-.021.516-.081.175-.033.325-.13.489-.194.188-.069.148-.295.14-.452-.025-.167.064-.321.067-.486a1.2 1.2 0 0 0 .009-.469c.022-.168-.035-.361-.198-.438-.127-.06-.284-.117-.304-.278-.095-.209.019-.44-.059-.653-.01-.154-.094-.321-.268-.314-.077-.05-.141-.016-.054.057.005.007.013.015.013.025zm-.424 6.037c-.325.02.043.782-.044 1.084.091.542-.426.815-.627 1.237-.212.656-.152 1.368-.136 2.049.393.443.961-.081 1.362-.253.4-.411.245-1.045.394-1.555.257-.669-.492-.958-.563-1.536-.048-.286.225-1.393-.386-1.026zm11.554-5.466l.459-.488c.227-.121-.071-.252-.193-.306-.218-.043-.177-.323-.003-.395.24-.201.83-.141 1.106-.277.171-.136.405-.175.559-.333l.49 1.848.119 3.38-2.598-.501c.001-1.241-.16-2.672.061-2.929zm2.572 4.391l.224 6.33h-2.779l-.118-3.92c-.114-.257.456-.495.647-.569.254-.006.131-.38-.11-.483-.233-.042-.456-.378-.131-.48.195-.142.424-.207.654-.262l.626-.258c.249-.067.443-.245.698-.295.1-.034.171-.139.287-.063zm-5.045 4.11c.022-.639.081-1.392-.426-1.87-.297-.409-.153-.931-.282-1.381-.667-.128.013 1.122-.649 1.305-.404.338-.039.879-.165 1.318-.058.683.776.805 1.28.862.128.007.273-.089.242-.235zm-1.204-9.337c.215-.338-.145-1.364.447-1.16.048.46-.199 1.053.26 1.359.428.45.449 1.109.486 1.691-.082.741-1.097.309-1.432-.013-.07-.538-.314-1.153-.13-1.696.066-.112.241-.186.369-.181zm7.826 1.328c-.714.149-.369.937-.326 1.409-.145.676.518.807 1.008.927.829.19.375-.745.406-1.187.035-.592-.551-.956-.587-1.533.093-.307-.119-.98-.425-.458-.024.265.122.619-.077.842zm.838 4.971c-.556.238.002.996-.343 1.404-.452.537-.28 1.264-.262 1.903.037.511.263 1.2.894 1.164.514-.15.194-.931.185-1.339-.031-.594-.212-1.158-.412-1.705l-.062-1.428z"
       id="path106" />
  </g>
  <g
     id="g1541">
    <path
       d="M42.795 66.265c-1.535-.008-3.385.299-5.433.803-3.307.307-3.009-.016-4.512-.024l-4.252 6.378c1.767.986 3.838-.292 6.189-.78 3.641-.755 6.703 1.007 8.646 2.103 1.943-1.096 5.005-2.858 8.646-2.103 2.352.488 4.422 1.766 6.189.78l-4.252-6.378c-1.504.008-1.205.331-4.512.024-2.34-.577-4.422-.895-6.071-.78l-.638-.023z"
       fill="#e5e5e5"
       stroke="#606060"
       class="B"
       id="path108" />
    <path
       d="M32.219 71.629l2.773-1.837c4.164-.298 6.486-.422 8.441 1.236v1.604c-4.174-2.649-7.864-1.198-11.214-1.002z"
       fill="silver"
       id="path110" />
    <path
       d="M32.219 71.629l2.372-4.51 1.537-.568-1.136 3.241z"
       fill="gray"
       id="path112" />
    <path
       d="M36.128 66.55c2.243-1.42 5.059-2.346 7.305-1.269v5.746c-1.955-1.659-4.277-1.534-8.441-1.236z"
       class="G"
       id="path114" />
    <path
       d="M54.647 71.629l-2.773-1.837c-4.164-.298-6.486-.422-8.441 1.236v1.604c4.174-2.649 7.864-1.198 11.214-1.002z"
       fill="silver"
       id="path116" />
    <path
       d="M54.647 71.629l-2.372-4.51-1.537-.568 1.136 3.241z"
       fill="gray"
       id="path118" />
    <path
       d="M50.738 66.55c-2.243-1.42-5.059-2.346-7.305-1.269v5.746c1.955-1.659 4.277-1.534 8.441-1.236z"
       class="G"
       id="path120" />
    <g
       stroke="#606060"
       class="B N"
       id="g126">
      <path
         d="M41.196 64.813c-1.712.019-3.526.761-5.067 1.738l-1.537.568-2.372 4.51c3.35-.195 7.04-1.647 11.214 1.003 4.174-2.649 7.864-1.198 11.214-1.003l-2.372-4.51-1.537-.568c-2.243-1.42-5.059-2.346-7.305-1.269-.702-.337-1.459-.477-2.238-.469z"
         id="path122" />
      <path
         d="M43.433 72.631v-7.35"
         id="path124" />
    </g>
    <g
       stroke="#696969"
       stroke-width=".539"
       stroke-dasharray="1.07745, 0.53872399999999998"
       class="N"
       id="g132">
      <path
         d="M37.499 66.814a8.55 8.55 0 0 1 4.273-.213m-4.432 1.188c1.482-.416 3.829-.431 5.028.099"
         class="E"
         id="path128" />
      <path
         d="M37.312 68.741c1.502-.228 4.096-.048 5.273.424m6.783-2.351a8.55 8.55 0 0 0-4.273-.213m4.432 1.188c-1.482-.416-3.829-.431-5.028.099m5.055.853c-1.502-.228-4.096-.048-5.273.424"
         class="E"
         id="path130" />
    </g>
  </g>
  <g
     id="g1401">
    <g
       transform="matrix(.53713 1.051719 -1.054566 .529545 188.76221 2.107388)"
       id="g138">
      <path
         id="use134"
         d="m -46.64,127.678 c 1.384,-4.73 -0.531,-4.201 -0.935,-6.08 -0.45,2.191 -0.891,4.381 0.935,6.08 z"
         style="fill:#f5c742;stroke:#a07843;stroke-width:0.265" />
      <path
         id="use136"
         d="m -47.4,123.14 c 0.676,0.558 0.714,2.185 0.621,3.208 0.228,-0.624 0.337,-1.29 0.249,-1.98 -0.054,-0.419 -0.194,-1.029 -0.87,-1.229 z"
         style="fill:#ffeba3" />
    </g>
    <g
       transform="matrix(.717154 .402283 -.415662 .658739 115.84577 -46.417211)"
       id="g224">
      <path
         id="circle216"
         style="opacity:0.998;fill:#ffffff;stroke:#dddddd;stroke-width:0.565;paint-order:markers fill stroke"
         d="m -45.945,154.701 a 3.756,3.756 0 0 1 -3.756,3.756 3.756,3.756 0 0 1 -3.756,-3.756 3.756,3.756 0 0 1 3.756,-3.756 3.756,3.756 0 0 1 3.756,3.756 z"
         class="E G H P" />
      <path
         id="use218"
         d="m -51.826,154.91 c -0.092,0.46 0.124,0.905 0.609,0.983 0.328,0.234 0.661,0.64 0.819,-0.019 0.23,-0.449 0.616,-0.991 1.191,-0.898 0.498,-0.105 0.909,0.224 1.289,0.477 0.548,0.075 0.78,-0.545 1.14,-0.836 0.627,-0.606 -0.625,-0.937 -0.967,-1.249 -1.311,-0.928 -3.988,-0.115 -4.081,1.543 z"
         style="fill:#dddddd" />
      <path
         id="use220"
         d="m -55.46,155.274 c 2.328,0.86 0.08,4.877 5.386,6.81 1.073,0.391 1.274,1.215 1.563,1.977 0.549,-1.705 1.081,-2.343 2.622,-3.274 1.948,-1.178 -0.396,-4.721 1.187,-7.55 -1.197,0.768 -2.741,0.357 -3.541,2.472 -0.299,-0.496 -0.524,-1.03 -1.336,-1.27 -0.277,0.85 -0.552,1.709 -1.002,2.038 -1.247,-1.254 -2.919,-1.551 -4.878,-1.203 z"
         style="fill:#32cd32;stroke:#54ab00;stroke-width:0.565" />
    </g>
    <g
       transform="matrix(.876987 .27718 -.29293 .829835 102.05544 -71.889367)"
       id="g234">
      <path
         id="circle226"
         style="opacity:0.998;fill:#ffffff;stroke:#dddddd;stroke-width:0.565;paint-order:markers fill stroke"
         d="m -45.945,154.701 a 3.756,3.756 0 0 1 -3.756,3.756 3.756,3.756 0 0 1 -3.756,-3.756 3.756,3.756 0 0 1 3.756,-3.756 3.756,3.756 0 0 1 3.756,3.756 z"
         class="E G H P" />
      <path
         id="use228"
         d="m -51.826,154.91 c -0.092,0.46 0.124,0.905 0.609,0.983 0.328,0.234 0.661,0.64 0.819,-0.019 0.23,-0.449 0.616,-0.991 1.191,-0.898 0.498,-0.105 0.909,0.224 1.289,0.477 0.548,0.075 0.78,-0.545 1.14,-0.836 0.627,-0.606 -0.625,-0.937 -0.967,-1.249 -1.311,-0.928 -3.988,-0.115 -4.081,1.543 z"
         style="fill:#dddddd" />
      <path
         id="use230"
         d="m -55.46,155.274 c 2.328,0.86 0.08,4.877 5.386,6.81 1.073,0.391 1.274,1.215 1.563,1.977 0.549,-1.705 1.081,-2.343 2.622,-3.274 1.948,-1.178 -0.396,-4.721 1.187,-7.55 -1.197,0.768 -2.741,0.357 -3.541,2.472 -0.299,-0.496 -0.524,-1.03 -1.336,-1.27 -0.277,0.85 -0.552,1.709 -1.002,2.038 -1.247,-1.254 -2.919,-1.551 -4.878,-1.203 z"
         style="fill:#32cd32;stroke:#54ab00;stroke-width:0.565" />
    </g>
    <g
       transform="matrix(.999641 .026788 -.026788 .999641 66.446143 -103.248903)"
       id="g244">
      <path
         id="circle236"
         style="opacity:0.998;fill:#ffffff;stroke:#dddddd;stroke-width:0.565;paint-order:markers fill stroke"
         d="m -45.945,154.701 a 3.756,3.756 0 0 1 -3.756,3.756 3.756,3.756 0 0 1 -3.756,-3.756 3.756,3.756 0 0 1 3.756,-3.756 3.756,3.756 0 0 1 3.756,3.756 z"
         class="E G H P" />
      <path
         id="use238"
         d="m -51.826,154.91 c -0.092,0.46 0.124,0.905 0.609,0.983 0.328,0.234 0.661,0.64 0.819,-0.019 0.23,-0.449 0.616,-0.991 1.191,-0.898 0.498,-0.105 0.909,0.224 1.289,0.477 0.548,0.075 0.78,-0.545 1.14,-0.836 0.627,-0.606 -0.625,-0.937 -0.967,-1.249 -1.311,-0.928 -3.988,-0.115 -4.081,1.543 z"
         style="fill:#dddddd" />
      <path
         id="use240"
         d="m -55.46,155.274 c 2.328,0.86 0.08,4.877 5.386,6.81 1.073,0.391 1.274,1.215 1.563,1.977 0.549,-1.705 1.081,-2.343 2.622,-3.274 1.948,-1.178 -0.396,-4.721 1.187,-7.55 -1.197,0.768 -2.741,0.357 -3.541,2.472 -0.299,-0.496 -0.524,-1.03 -1.336,-1.27 -0.277,0.85 -0.552,1.709 -1.002,2.038 -1.247,-1.254 -2.919,-1.551 -4.878,-1.203 z"
         style="fill:#32cd32;stroke:#54ab00;stroke-width:0.565" />
    </g>
    <g
       transform="matrix(.992801 -.119773 .119773 .992801 44.657198 -101.285794)"
       id="g254">
      <path
         id="circle246"
         style="opacity:0.998;fill:#ffffff;stroke:#dddddd;stroke-width:0.565;paint-order:markers fill stroke"
         d="m -45.945,154.701 a 3.756,3.756 0 0 1 -3.756,3.756 3.756,3.756 0 0 1 -3.756,-3.756 3.756,3.756 0 0 1 3.756,-3.756 3.756,3.756 0 0 1 3.756,3.756 z"
         class="E G H P" />
      <path
         id="use248"
         d="m -51.826,154.91 c -0.092,0.46 0.124,0.905 0.609,0.983 0.328,0.234 0.661,0.64 0.819,-0.019 0.23,-0.449 0.616,-0.991 1.191,-0.898 0.498,-0.105 0.909,0.224 1.289,0.477 0.548,0.075 0.78,-0.545 1.14,-0.836 0.627,-0.606 -0.625,-0.937 -0.967,-1.249 -1.311,-0.928 -3.988,-0.115 -4.081,1.543 z"
         style="fill:#dddddd" />
      <path
         id="use250"
         d="m -55.46,155.274 c 2.328,0.86 0.08,4.877 5.386,6.81 1.073,0.391 1.274,1.215 1.563,1.977 0.549,-1.705 1.081,-2.343 2.622,-3.274 1.948,-1.178 -0.396,-4.721 1.187,-7.55 -1.197,0.768 -2.741,0.357 -3.541,2.472 -0.299,-0.496 -0.524,-1.03 -1.336,-1.27 -0.277,0.85 -0.552,1.709 -1.002,2.038 -1.247,-1.254 -2.919,-1.551 -4.878,-1.203 z"
         style="fill:#32cd32;stroke:#54ab00;stroke-width:0.565" />
    </g>
    <g
       class="F"
       id="g260">
      <path
         d="M16.716 32.574c2.061-5.206 8.732-10.3 12.461-12.061"
         class="H N"
         id="path256" />
      <path
         id="use258"
         d="m 17.284,31.303999 c 1.384,-4.73 -0.531,-4.201 -0.935,-6.08 -0.45,2.191 -0.891,4.381 0.935,6.08 z"
         style="fill:#f5c742;stroke-width:0.265" />
    </g>
    <path
       id="use262"
       d="m 16.524,26.765999 c 0.676,0.558 0.714,2.185 0.621,3.208 0.228,-0.624 0.337,-1.29 0.249,-1.98 -0.054,-0.419 -0.194,-1.029 -0.87,-1.229 z"
       style="fill:#ffeba3" />
    <g
       transform="matrix(-.354906 -.934902 -.934902 .354906 120.40308 -57.676251)"
       id="g268">
      <path
         id="use264"
         d="m -46.64,127.678 c 1.384,-4.73 -0.531,-4.201 -0.935,-6.08 -0.45,2.191 -0.891,4.381 0.935,6.08 z"
         style="fill:#f5c742;stroke:#a07843;stroke-width:0.265" />
      <path
         id="use266"
         d="m -47.4,123.14 c 0.676,0.558 0.714,2.185 0.621,3.208 0.228,-0.624 0.337,-1.29 0.249,-1.98 -0.054,-0.419 -0.194,-1.029 -0.87,-1.229 z"
         style="fill:#ffeba3" />
    </g>
    <g
       transform="matrix(.932633 .360827 -.360827 .932633 109.19433 -74.433423)"
       id="g274">
      <path
         id="use270"
         d="m -46.64,127.678 c 1.384,-4.73 -0.531,-4.201 -0.935,-6.08 -0.45,2.191 -0.891,4.381 0.935,6.08 z"
         style="fill:#f5c742;stroke:#a07843;stroke-width:0.265" />
      <path
         id="use272"
         d="m -47.4,123.14 c 0.676,0.558 0.714,2.185 0.621,3.208 0.228,-0.624 0.337,-1.29 0.249,-1.98 -0.054,-0.419 -0.194,-1.029 -0.87,-1.229 z"
         style="fill:#ffeba3" />
    </g>
    <g
       transform="matrix(-.301124 -.953585 -.953585 .301124 127.80998 -54.957694)"
       id="g280">
      <path
         id="use276"
         d="m -46.64,127.678 c 1.384,-4.73 -0.531,-4.201 -0.935,-6.08 -0.45,2.191 -0.891,4.381 0.935,6.08 z"
         style="fill:#f5c742;stroke:#a07843;stroke-width:0.265" />
      <path
         id="use278"
         d="m -47.4,123.14 c 0.676,0.558 0.714,2.185 0.621,3.208 0.228,-0.624 0.337,-1.29 0.249,-1.98 -0.054,-0.419 -0.194,-1.029 -0.87,-1.229 z"
         style="fill:#ffeba3" />
    </g>
    <g
       transform="matrix(-.25536 -.966846 -.966846 .25536 134.72604 -52.847317)"
       id="g286">
      <path
         id="use282"
         d="m -46.64,127.678 c 1.384,-4.73 -0.531,-4.201 -0.935,-6.08 -0.45,2.191 -0.891,4.381 0.935,6.08 z"
         style="fill:#f5c742;stroke:#a07843;stroke-width:0.265" />
      <path
         id="use284"
         d="m -47.4,123.14 c 0.676,0.558 0.714,2.185 0.621,3.208 0.228,-0.624 0.337,-1.29 0.249,-1.98 -0.054,-0.419 -0.194,-1.029 -0.87,-1.229 z"
         style="fill:#ffeba3" />
    </g>
    <g
       transform="matrix(-.299271 -.954168 -.954168 .299271 134.31811 -60.333339)"
       id="g292">
      <path
         id="use288"
         d="m -46.64,127.678 c 1.384,-4.73 -0.531,-4.201 -0.935,-6.08 -0.45,2.191 -0.891,4.381 0.935,6.08 z"
         style="fill:#f5c742;stroke:#a07843;stroke-width:0.265" />
      <path
         id="use290"
         d="m -47.4,123.14 c 0.676,0.558 0.714,2.185 0.621,3.208 0.228,-0.624 0.337,-1.29 0.249,-1.98 -0.054,-0.419 -0.194,-1.029 -0.87,-1.229 z"
         style="fill:#ffeba3" />
    </g>
    <g
       transform="matrix(.932633 .360827 -.360827 .932633 112.768915 -77.707326)"
       id="g298">
      <path
         id="use294"
         d="m -46.64,127.678 c 1.384,-4.73 -0.531,-4.201 -0.935,-6.08 -0.45,2.191 -0.891,4.381 0.935,6.08 z"
         style="fill:#f5c742;stroke:#a07843;stroke-width:0.265" />
      <path
         id="use296"
         d="m -47.4,123.14 c 0.676,0.558 0.714,2.185 0.621,3.208 0.228,-0.624 0.337,-1.29 0.249,-1.98 -0.054,-0.419 -0.194,-1.029 -0.87,-1.229 z"
         style="fill:#ffeba3" />
    </g>
    <g
       transform="matrix(.932633 .360827 -.360827 .932633 115.809131 -79.979081)"
       id="g304">
      <path
         id="use300"
         d="m -46.64,127.678 c 1.384,-4.73 -0.531,-4.201 -0.935,-6.08 -0.45,2.191 -0.891,4.381 0.935,6.08 z"
         style="fill:#f5c742;stroke:#a07843;stroke-width:0.265" />
      <path
         id="use302"
         d="m -47.4,123.14 c 0.676,0.558 0.714,2.185 0.621,3.208 0.228,-0.624 0.337,-1.29 0.249,-1.98 -0.054,-0.419 -0.194,-1.029 -0.87,-1.229 z"
         style="fill:#ffeba3" />
    </g>
  </g>
  <g
     id="g1481">
    <g
       transform="matrix(1.108118 0 0 1.108118 63.800398 -109.935408)"
       id="g148">
      <g
         class="F"
         id="g144">
        <path
           id="circle140"
           style="opacity:0.998;fill:#ffeba3;stroke-width:0.251;paint-order:markers fill stroke"
           d="m 2.549,126.235 a 0.62099999,0.62099999 0 0 1 -0.621,0.621 0.62099999,0.62099999 0 0 1 -0.621,-0.621 0.62099999,0.62099999 0 0 1 0.621,-0.621 0.62099999,0.62099999 0 0 1 0.621,0.621 z"
           class="C E L" />
        <path
           id="use142"
           d="m 1.633,126.884 c 1.335,0.592 2.397,0.937 3.922,1.016 -1.589,-1.289 -1.481,-1.957 -3.154,-2.28 0.326,0.503 0.298,1.13 -0.768,1.264 z"
           style="fill:#f5c742;stroke-width:0.265" />
      </g>
      <path
         id="use146"
         d="m 2.873,126.246 c 0.138,0.083 0.273,0.172 0.376,0.299 0.174,0.175 0.371,0.325 0.572,0.467 0.101,0.093 0.172,0.224 0.308,0.273 0.127,0.048 0.233,0.153 0.373,0.161 -0.065,-0.094 -0.223,-0.179 -0.3,-0.293 -0.11,-0.132 -0.202,-0.277 -0.308,-0.411 -0.175,-0.196 -0.39,-0.353 -0.615,-0.485 -0.116,-0.028 -0.242,-0.031 -0.362,-0.034 -0.016,0.004 -0.036,0.006 -0.043,0.023 z"
         style="fill:#ffeba3" />
    </g>
    <g
       transform="matrix(.467529 .883978 -.883978 .467529 179.927436 -34.412167)"
       id="g158">
      <g
         class="F"
         id="g154">
        <path
           id="circle150"
           style="opacity:0.998;fill:#ffeba3;stroke-width:0.251;paint-order:markers fill stroke"
           d="m 2.549,126.235 a 0.62099999,0.62099999 0 0 1 -0.621,0.621 0.62099999,0.62099999 0 0 1 -0.621,-0.621 0.62099999,0.62099999 0 0 1 0.621,-0.621 0.62099999,0.62099999 0 0 1 0.621,0.621 z"
           class="C E L" />
        <path
           id="use152"
           d="m 1.633,126.884 c 1.335,0.592 2.397,0.937 3.922,1.016 -1.589,-1.289 -1.481,-1.957 -3.154,-2.28 0.326,0.503 0.298,1.13 -0.768,1.264 z"
           style="fill:#f5c742;stroke-width:0.265" />
      </g>
      <path
         id="use156"
         d="m 2.873,126.246 c 0.138,0.083 0.273,0.172 0.376,0.299 0.174,0.175 0.371,0.325 0.572,0.467 0.101,0.093 0.172,0.224 0.308,0.273 0.127,0.048 0.233,0.153 0.373,0.161 -0.065,-0.094 -0.223,-0.179 -0.3,-0.293 -0.11,-0.132 -0.202,-0.277 -0.308,-0.411 -0.175,-0.196 -0.39,-0.353 -0.615,-0.485 -0.116,-0.028 -0.242,-0.031 -0.362,-0.034 -0.016,0.004 -0.036,0.006 -0.043,0.023 z"
         style="fill:#ffeba3" />
    </g>
    <g
       transform="matrix(.924228 .808478 -.808478 .924228 165.0418 -96.063408)"
       id="g168">
      <g
         class="F"
         id="g164">
        <path
           id="circle160"
           style="opacity:0.998;fill:#ffeba3;stroke-width:0.251;paint-order:markers fill stroke"
           d="m 2.549,126.235 a 0.62099999,0.62099999 0 0 1 -0.621,0.621 0.62099999,0.62099999 0 0 1 -0.621,-0.621 0.62099999,0.62099999 0 0 1 0.621,-0.621 0.62099999,0.62099999 0 0 1 0.621,0.621 z"
           class="C E L" />
        <path
           id="use162"
           d="m 1.633,126.884 c 1.335,0.592 2.397,0.937 3.922,1.016 -1.589,-1.289 -1.481,-1.957 -3.154,-2.28 0.326,0.503 0.298,1.13 -0.768,1.264 z"
           style="fill:#f5c742;stroke-width:0.265" />
      </g>
      <path
         id="use166"
         d="m 2.873,126.246 c 0.138,0.083 0.273,0.172 0.376,0.299 0.174,0.175 0.371,0.325 0.572,0.467 0.101,0.093 0.172,0.224 0.308,0.273 0.127,0.048 0.233,0.153 0.373,0.161 -0.065,-0.094 -0.223,-0.179 -0.3,-0.293 -0.11,-0.132 -0.202,-0.277 -0.308,-0.411 -0.175,-0.196 -0.39,-0.353 -0.615,-0.485 -0.116,-0.028 -0.242,-0.031 -0.362,-0.034 -0.016,0.004 -0.036,0.006 -0.043,0.023 z"
         style="fill:#ffeba3" />
    </g>
    <g
       transform="matrix(.868388 .808155 -.808155 .868388 160.459883 -92.13989)"
       id="g178">
      <g
         class="F"
         id="g174">
        <path
           id="circle170"
           style="opacity:0.998;fill:#ffeba3;stroke-width:0.251;paint-order:markers fill stroke"
           d="m 2.549,126.235 a 0.62099999,0.62099999 0 0 1 -0.621,0.621 0.62099999,0.62099999 0 0 1 -0.621,-0.621 0.62099999,0.62099999 0 0 1 0.621,-0.621 0.62099999,0.62099999 0 0 1 0.621,0.621 z"
           class="C E L" />
        <path
           id="use172"
           d="m 1.633,126.884 c 1.335,0.592 2.397,0.937 3.922,1.016 -1.589,-1.289 -1.481,-1.957 -3.154,-2.28 0.326,0.503 0.298,1.13 -0.768,1.264 z"
           style="fill:#f5c742;stroke-width:0.265" />
      </g>
      <path
         id="use176"
         d="m 2.873,126.246 c 0.138,0.083 0.273,0.172 0.376,0.299 0.174,0.175 0.371,0.325 0.572,0.467 0.101,0.093 0.172,0.224 0.308,0.273 0.127,0.048 0.233,0.153 0.373,0.161 -0.065,-0.094 -0.223,-0.179 -0.3,-0.293 -0.11,-0.132 -0.202,-0.277 -0.308,-0.411 -0.175,-0.196 -0.39,-0.353 -0.615,-0.485 -0.116,-0.028 -0.242,-0.031 -0.362,-0.034 -0.016,0.004 -0.036,0.006 -0.043,0.023 z"
         style="fill:#ffeba3" />
    </g>
    <g
       transform="matrix(1.125911 -.492129 .492129 1.125911 -3.489309 -114.133432)"
       id="g188">
      <g
         class="F"
         id="g184">
        <path
           id="circle180"
           style="opacity:0.998;fill:#ffeba3;stroke-width:0.251;paint-order:markers fill stroke"
           d="m 2.549,126.235 a 0.62099999,0.62099999 0 0 1 -0.621,0.621 0.62099999,0.62099999 0 0 1 -0.621,-0.621 0.62099999,0.62099999 0 0 1 0.621,-0.621 0.62099999,0.62099999 0 0 1 0.621,0.621 z"
           class="C E L" />
        <path
           id="use182"
           d="m 1.633,126.884 c 1.335,0.592 2.397,0.937 3.922,1.016 -1.589,-1.289 -1.481,-1.957 -3.154,-2.28 0.326,0.503 0.298,1.13 -0.768,1.264 z"
           style="fill:#f5c742;stroke-width:0.265" />
      </g>
      <path
         id="use186"
         d="m 2.873,126.246 c 0.138,0.083 0.273,0.172 0.376,0.299 0.174,0.175 0.371,0.325 0.572,0.467 0.101,0.093 0.172,0.224 0.308,0.273 0.127,0.048 0.233,0.153 0.373,0.161 -0.065,-0.094 -0.223,-0.179 -0.3,-0.293 -0.11,-0.132 -0.202,-0.277 -0.308,-0.411 -0.175,-0.196 -0.39,-0.353 -0.615,-0.485 -0.116,-0.028 -0.242,-0.031 -0.362,-0.034 -0.016,0.004 -0.036,0.006 -0.043,0.023 z"
         style="fill:#ffeba3" />
    </g>
    <g
       transform="matrix(1.201373 -.525113 .525113 1.201373 -12.083786 -126.537814)"
       id="g198">
      <g
         class="F"
         id="g194">
        <path
           id="circle190"
           style="opacity:0.998;fill:#ffeba3;stroke-width:0.251;paint-order:markers fill stroke"
           d="m 2.549,126.235 a 0.62099999,0.62099999 0 0 1 -0.621,0.621 0.62099999,0.62099999 0 0 1 -0.621,-0.621 0.62099999,0.62099999 0 0 1 0.621,-0.621 0.62099999,0.62099999 0 0 1 0.621,0.621 z"
           class="C E L" />
        <path
           id="use192"
           d="m 1.633,126.884 c 1.335,0.592 2.397,0.937 3.922,1.016 -1.589,-1.289 -1.481,-1.957 -3.154,-2.28 0.326,0.503 0.298,1.13 -0.768,1.264 z"
           style="fill:#f5c742;stroke-width:0.265" />
      </g>
      <path
         id="use196"
         d="m 2.873,126.246 c 0.138,0.083 0.273,0.172 0.376,0.299 0.174,0.175 0.371,0.325 0.572,0.467 0.101,0.093 0.172,0.224 0.308,0.273 0.127,0.048 0.233,0.153 0.373,0.161 -0.065,-0.094 -0.223,-0.179 -0.3,-0.293 -0.11,-0.132 -0.202,-0.277 -0.308,-0.411 -0.175,-0.196 -0.39,-0.353 -0.615,-0.485 -0.116,-0.028 -0.242,-0.031 -0.362,-0.034 -0.016,0.004 -0.036,0.006 -0.043,0.023 z"
         style="fill:#ffeba3" />
    </g>
    <g
       transform="matrix(1.311119 -.002635 .002635 1.311119 50.371508 -146.99638)"
       id="g208">
      <g
         class="F"
         id="g204">
        <path
           id="circle200"
           style="opacity:0.998;fill:#ffeba3;stroke-width:0.251;paint-order:markers fill stroke"
           d="m 2.549,126.235 a 0.62099999,0.62099999 0 0 1 -0.621,0.621 0.62099999,0.62099999 0 0 1 -0.621,-0.621 0.62099999,0.62099999 0 0 1 0.621,-0.621 0.62099999,0.62099999 0 0 1 0.621,0.621 z"
           class="C E L" />
        <path
           id="use202"
           d="m 1.633,126.884 c 1.335,0.592 2.397,0.937 3.922,1.016 -1.589,-1.289 -1.481,-1.957 -3.154,-2.28 0.326,0.503 0.298,1.13 -0.768,1.264 z"
           style="fill:#f5c742;stroke-width:0.265" />
      </g>
      <path
         id="use206"
         d="m 2.873,126.246 c 0.138,0.083 0.273,0.172 0.376,0.299 0.174,0.175 0.371,0.325 0.572,0.467 0.101,0.093 0.172,0.224 0.308,0.273 0.127,0.048 0.233,0.153 0.373,0.161 -0.065,-0.094 -0.223,-0.179 -0.3,-0.293 -0.11,-0.132 -0.202,-0.277 -0.308,-0.411 -0.175,-0.196 -0.39,-0.353 -0.615,-0.485 -0.116,-0.028 -0.242,-0.031 -0.362,-0.034 -0.016,0.004 -0.036,0.006 -0.043,0.023 z"
         style="fill:#ffeba3" />
    </g>
    <g
       class="F N"
       id="g214">
      <path
         d="M57.991 20.681c1.682.744 2.603 1.928 4.072 3.432 1.692 1.733 2.255.536 4.912 3.397l3.733 5.068"
         stroke-width=".465"
         id="path210" />
      <path
         d="M65.708 27.137l1.267.373m-.238-.907l.943 1.866m1.784 1.825l.323 1.033"
         class="B"
         id="path212" />
    </g>
    <g
       transform="matrix(.978821 -.204718 .204718 .978821 33.781858 -97.313353)"
       id="g344">
      <g
         transform="matrix(.767558 -.609216 .611126 .881564 -93.608429 4.318268)"
         id="g314">
        <g
           class="B"
           id="g310">
          <path
             id="use306"
             d="m 7.198,161.958 -0.459,2.293 0.425,0.12 0.812,-2.159 z"
             style="fill:#018f50;stroke:#005b31" />
          <path
             id="use308"
             d="m 10.302,154.937 c -8.088,3.028 -5.109,7.046 -2.787,7.347 3.584,1.378 6.138,-1.603 2.787,-7.347 z"
             style="fill:#32cd32;stroke:#54ab00;fill-opacity:1" />
        </g>
        <path
           id="use312"
           d="m 9.877,156.236 c -0.557,1.015 -0.293,2.227 0.136,3.235 0.305,0.619 0.367,1.608 0.246,2.082 0.51,-0.488 1.157,-1.028 1.062,-1.823 0.093,-0.99 -0.442,-1.858 -0.739,-2.763 -0.262,-0.302 -0.233,-1.838 -0.705,-0.732 z"
           style="fill:#61d861;fill-opacity:1" />
      </g>
      <g
         transform="matrix(.926318 -.40964 .362731 .971989 -54.520781 -5.477295)"
         id="g324">
        <g
           class="B"
           id="g320">
          <path
             id="use316"
             d="m 7.198,161.958 -0.459,2.293 0.425,0.12 0.812,-2.159 z"
             style="fill:#018f50;stroke:#005b31" />
          <path
             id="use318"
             d="m 10.302,154.937 c -8.088,3.028 -5.109,7.046 -2.787,7.347 3.584,1.378 6.138,-1.603 2.787,-7.347 z"
             style="fill:#32cd32;stroke:#54ab00;fill-opacity:1" />
        </g>
        <path
           id="use322"
           d="m 9.877,156.236 c -0.557,1.015 -0.293,2.227 0.136,3.235 0.305,0.619 0.367,1.608 0.246,2.082 0.51,-0.488 1.157,-1.028 1.062,-1.823 0.093,-0.99 -0.442,-1.858 -0.739,-2.763 -0.262,-0.302 -0.233,-1.838 -0.705,-0.732 z"
           style="fill:#61d861;fill-opacity:1" />
      </g>
      <g
         transform="rotate(351.538 -36.545 144.639)"
         id="g334">
        <g
           class="B"
           id="g330">
          <path
             id="use326"
             d="m 7.198,161.958 -0.459,2.293 0.425,0.12 0.812,-2.159 z"
             style="fill:#018f50;stroke:#005b31" />
          <path
             id="use328"
             d="m 10.302,154.937 c -8.088,3.028 -5.109,7.046 -2.787,7.347 3.584,1.378 6.138,-1.603 2.787,-7.347 z"
             style="fill:#32cd32;stroke:#54ab00;fill-opacity:1" />
        </g>
        <path
           id="use332"
           d="m 9.877,156.236 c -0.557,1.015 -0.293,2.227 0.136,3.235 0.305,0.619 0.367,1.608 0.246,2.082 0.51,-0.488 1.157,-1.028 1.062,-1.823 0.093,-0.99 -0.442,-1.858 -0.739,-2.763 -0.262,-0.302 -0.233,-1.838 -0.705,-0.732 z"
           style="fill:#61d861;fill-opacity:1" />
      </g>
      <g
         class="B"
         id="g340">
        <path
           id="use336"
           d="m 7.002,161.048 -0.459,2.293 0.425,0.12 0.812,-2.159 z"
           style="fill:#018f50;stroke:#005b31" />
        <path
           id="use338"
           d="m 10.107,154.027 c -8.088,3.028 -5.109,7.046 -2.787,7.347 3.584,1.378 6.138,-1.603 2.787,-7.347 z"
           style="fill:#32cd32;stroke:#54ab00;fill-opacity:1" />
      </g>
      <path
         id="use342"
         d="m 9.681,155.326 c -0.557,1.015 -0.293,2.227 0.136,3.235 0.305,0.619 0.367,1.608 0.246,2.082 0.51,-0.488 1.157,-1.028 1.062,-1.823 0.093,-0.99 -0.442,-1.858 -0.739,-2.763 -0.262,-0.302 -0.233,-1.838 -0.705,-0.732 z"
         style="fill:#61d861;fill-opacity:1" />
    </g>
    <g
       transform="matrix(.997037 .076928 -.076928 .997037 76.040184 -96.786168)"
       id="g354">
      <g
         class="B I J"
         id="g350">
        <path
           id="use346"
           d="m 7.198,161.958 -0.459,2.293 0.425,0.12 0.812,-2.159 z"
           style="fill:#32cd32;fill-opacity:1" />
        <path
           id="use348"
           d="m 10.302,154.937 c -8.088,3.028 -5.109,7.046 -2.787,7.347 3.584,1.378 6.138,-1.603 2.787,-7.347 z"
           style="fill:#32cd32;fill-opacity:1" />
      </g>
      <path
         id="use352"
         d="m 9.877,156.236 c -0.557,1.015 -0.293,2.227 0.136,3.235 0.305,0.619 0.367,1.608 0.246,2.082 0.51,-0.488 1.157,-1.028 1.062,-1.823 0.093,-0.99 -0.442,-1.858 -0.739,-2.763 -0.262,-0.302 -0.233,-1.838 -0.705,-0.732 z"
         style="fill:#61d861;fill-opacity:1" />
    </g>
  </g>
  <defs
     id="defs372">
    <path
       id="B"
       d="M15.362 70.292c-.826-.52 2.116-3.209 3.057-2.639l3.608 2.773c1.713 1.003 2.274-.232 2.238-.969l.2-1.37c.44-.359 2.134-.363 2.773.1.74 1.392.513 2.966.267 4.544-.052.321-1.744 3.275-5.245 1.37z" />
    <path
       id="C"
       d="M18.318 68.371c-.454-.232-1.29.11-1.375.556.483.289 1.115.263 1.643.49.987.35 1.862.935 2.695 1.56.279.426.758-.06.255-.271l-2.407-1.96c-.257-.153-.541-.25-.811-.375z" />
    <path
       id="D"
       d="M26.336 71.696c-.453.606-.92 1.428-1.784 1.418-.562.087-1.102-.086-1.648-.133-.77.172.067 1.059.57.943.679.02 1.477.276 2.044-.238.423-.316 1.061-.558 1.074-1.175.029-.285-.005-.632-.255-.815z" />
    <path
       id="E"
       d="M25.768 68.438c-.476.113-1.143.309-1.101.922-.204.279-.007 1.326.297.727.132-.611.635-1.007 1.261-.949.866-.246-.023-.699-.458-.699z" />
    <path
       id="F"
       d="M24.641 66.91c-1.427-7.932.408-14.208 4.769-19.202 1.13 3.447.703 8.283-3.14 16.17-.432 1.232 1.231 2.012 2.288 2.923z" />
    <path
       id="G"
       d="M25.326 67.164c.264.131.463.24.617.444.116-.188.061-.362-.009-.488-.246-.009-.413.024-.579.053-.01-.002-.019-.005-.028-.01z" />
    <path
       id="H"
       d="M-46.64 127.678c1.384-4.73-.531-4.201-.935-6.08-.45 2.191-.891 4.381.935 6.08z" />
    <path
       id="I"
       d="M-47.4 123.14c.676.558.714 2.185.621 3.208.228-.624.337-1.29.249-1.98-.054-.419-.194-1.029-.87-1.229z" />
    <path
       id="J"
       d="M1.633 126.884c1.335.592 2.397.937 3.922 1.016-1.589-1.289-1.481-1.957-3.154-2.28.326.503.298 1.13-.768 1.264z" />
    <path
       id="K"
       d="M2.873 126.246c.138.083.273.172.376.299.174.175.371.325.572.467.101.093.172.224.308.273.127.048.233.153.373.161-.065-.094-.223-.179-.3-.293-.11-.132-.202-.277-.308-.411-.175-.196-.39-.353-.615-.485-.116-.028-.242-.031-.362-.034-.016.004-.036.006-.043.023z" />
    <path
       id="L"
       d="M-51.826 154.91c-.092.46.124.905.609.983.328.234.661.64.819-.019.23-.449.616-.991 1.191-.898.498-.105.909.224 1.289.477.548.075.78-.545 1.14-.836.627-.606-.625-.937-.967-1.249-1.311-.928-3.988-.115-4.081 1.543z" />
    <path
       id="M"
       d="M-55.46 155.274c2.328.86.08 4.877 5.386 6.81 1.073.391 1.274 1.215 1.563 1.977.549-1.705 1.081-2.343 2.622-3.274 1.948-1.178-.396-4.721 1.187-7.55-1.197.768-2.741.357-3.541 2.472-.299-.496-.524-1.03-1.336-1.27-.277.85-.552 1.709-1.002 2.038-1.247-1.254-2.919-1.551-4.878-1.203z" />
    <path
       id="N"
       d="M-53.656 156.243c.676.781.672 1.916 1.252 2.736.72.485 1.679.284 2.492.212l2.793-.77c1.033-.148.837-1.276.898-2.024-.008-.502.626-1.326.265-1.563-.798.366-1.583.874-1.999 1.672-.741 1.053-.661-1.296-1.24-.946-.376.682-.755 1.762-1.639 1.82-.509-.474-.978-1.011-1.727-1.12-.348-.099-.754-.173-1.095-.017z" />
    <path
       id="O"
       d="M7.198 161.958l-.459 2.293.425.12.812-2.159z" />
    <path
       id="P"
       d="M10.302 154.937c-8.088 3.028-5.109 7.046-2.787 7.347 3.584 1.378 6.138-1.603 2.787-7.347z" />
    <path
       id="Q"
       d="M9.877 156.236c-.557 1.015-.293 2.227.136 3.235.305.619.367 1.608.246 2.082.51-.488 1.157-1.028 1.062-1.823.093-.99-.442-1.858-.739-2.763-.262-.302-.233-1.838-.705-.732z" />
  </defs>
</svg>
